<?xml version="1.0" standalone="no"?><!DOCTYPE svg PUBLIC "-//W3C//DTD SVG 1.1//EN" "http://www.w3.org/Graphics/SVG/1.1/DTD/svg11.dtd"><svg t="1626826005503" class="icon" viewBox="0 0 1024 1024" version="1.1" xmlns="http://www.w3.org/2000/svg" p-id="2011" width="48" height="48" data-spm-anchor-id="a313x.7781069.0.i2" xmlns:xlink="http://www.w3.org/1999/xlink"><defs><style type="text/css"></style></defs><path d="M1023.488 344.064c-3.072-143.36-128-170.496-128-170.496s-97.28-0.512-224.256-1.536l92.16-89.088s14.336-18.432-10.24-38.912c-24.576-20.48-26.624-11.264-34.816-6.144-7.68 5.632-117.76 113.664-137.216 133.12-50.176 0-102.4-0.512-153.088-0.512h17.92S313.856 39.936 305.152 34.304s-9.728-14.336-34.816 6.144c-24.576 20.48-10.24 38.912-10.24 38.912l94.208 91.648c-102.4 0-190.464 0.512-231.424 2.048C-9.728 210.944 0.512 344.064 0.512 344.064s1.536 285.696 0 429.568c14.336 144.384 125.44 167.424 125.44 167.424s44.032 1.024 76.8 1.024c3.072 9.216 6.144 54.272 56.32 54.272s56.32-54.272 56.32-54.272 369.152-1.536 399.872-1.536c1.536 15.872 9.216 57.344 59.904 56.32 50.176-1.024 53.76-59.904 53.76-59.904s17.408-1.536 68.608 0c119.808-22.016 126.464-162.304 126.464-162.304s-2.048-287.232-0.512-430.592z m-102.912 456.704c0 22.528-17.92 40.96-39.936 40.96H153.6c-22.016 0-39.936-18.432-39.936-40.96V318.464c0-22.528 17.92-40.96 39.936-40.96h727.04c22.016 0 39.936 18.432 39.936 40.96v482.304z" p-id="2012" fill="#515151"></path><path d="M403.968 414.208l-214.016 40.96 18.432 80.384 211.456-40.96-15.872-80.384z m115.2 212.48c-52.224 112.128-99.328 27.648-99.328 27.648l-34.816 22.528s69.12 94.208 134.656 22.528c77.312 71.68 136.704-23.04 136.704-23.04l-31.744-20.48c0-0.512-55.808 79.872-105.472-29.184zM624.64 494.08l211.968 40.96 17.92-80.384-213.504-40.96-16.384 80.384z" p-id="2013" fill="#515151"></path></svg>